<svg id="visual" viewBox="0 0 1920 1080" width="1920" height="1080" xmlns="http://www.w3.org/2000/svg" xmlns:xlink="http://www.w3.org/1999/xlink" version="1.1"><rect x="0" y="0" width="1920" height="1080" fill="#ffffff"></rect><defs><linearGradient id="grad1_0" x1="43.8%" y1="0%" x2="100%" y2="100%"><stop offset="14.444444444444446%" stop-color="#a2efb5" stop-opacity="1"></stop><stop offset="85.55555555555554%" stop-color="#a2efb5" stop-opacity="1"></stop></linearGradient></defs><defs><linearGradient id="grad1_1" x1="43.8%" y1="0%" x2="100%" y2="100%"><stop offset="14.444444444444446%" stop-color="#a2efb5" stop-opacity="1"></stop><stop offset="85.55555555555554%" stop-color="#b0f2bf" stop-opacity="1"></stop></linearGradient></defs><defs><linearGradient id="grad1_2" x1="43.8%" y1="0%" x2="100%" y2="100%"><stop offset="14.444444444444446%" stop-color="#bef4ca" stop-opacity="1"></stop><stop offset="85.55555555555554%" stop-color="#b0f2bf" stop-opacity="1"></stop></linearGradient></defs><defs><linearGradient id="grad1_3" x1="43.8%" y1="0%" x2="100%" y2="100%"><stop offset="14.444444444444446%" stop-color="#bef4ca" stop-opacity="1"></stop><stop offset="85.55555555555554%" stop-color="#cbf6d4" stop-opacity="1"></stop></linearGradient></defs><defs><linearGradient id="grad1_4" x1="43.8%" y1="0%" x2="100%" y2="100%"><stop offset="14.444444444444446%" stop-color="#d9f9df" stop-opacity="1"></stop><stop offset="85.55555555555554%" stop-color="#cbf6d4" stop-opacity="1"></stop></linearGradient></defs><defs><linearGradient id="grad1_5" x1="43.8%" y1="0%" x2="100%" y2="100%"><stop offset="14.444444444444446%" stop-color="#d9f9df" stop-opacity="1"></stop><stop offset="85.55555555555554%" stop-color="#e6fbea" stop-opacity="1"></stop></linearGradient></defs><defs><linearGradient id="grad1_6" x1="43.8%" y1="0%" x2="100%" y2="100%"><stop offset="14.444444444444446%" stop-color="#f2fdf4" stop-opacity="1"></stop><stop offset="85.55555555555554%" stop-color="#e6fbea" stop-opacity="1"></stop></linearGradient></defs><defs><linearGradient id="grad1_7" x1="43.8%" y1="0%" x2="100%" y2="100%"><stop offset="14.444444444444446%" stop-color="#f2fdf4" stop-opacity="1"></stop><stop offset="85.55555555555554%" stop-color="#ffffff" stop-opacity="1"></stop></linearGradient></defs><defs><linearGradient id="grad2_0" x1="0%" y1="0%" x2="56.3%" y2="100%"><stop offset="14.444444444444446%" stop-color="#a2efb5" stop-opacity="1"></stop><stop offset="85.55555555555554%" stop-color="#a2efb5" stop-opacity="1"></stop></linearGradient></defs><defs><linearGradient id="grad2_1" x1="0%" y1="0%" x2="56.3%" y2="100%"><stop offset="14.444444444444446%" stop-color="#b0f2bf" stop-opacity="1"></stop><stop offset="85.55555555555554%" stop-color="#a2efb5" stop-opacity="1"></stop></linearGradient></defs><defs><linearGradient id="grad2_2" x1="0%" y1="0%" x2="56.3%" y2="100%"><stop offset="14.444444444444446%" stop-color="#b0f2bf" stop-opacity="1"></stop><stop offset="85.55555555555554%" stop-color="#bef4ca" stop-opacity="1"></stop></linearGradient></defs><defs><linearGradient id="grad2_3" x1="0%" y1="0%" x2="56.3%" y2="100%"><stop offset="14.444444444444446%" stop-color="#cbf6d4" stop-opacity="1"></stop><stop offset="85.55555555555554%" stop-color="#bef4ca" stop-opacity="1"></stop></linearGradient></defs><defs><linearGradient id="grad2_4" x1="0%" y1="0%" x2="56.3%" y2="100%"><stop offset="14.444444444444446%" stop-color="#cbf6d4" stop-opacity="1"></stop><stop offset="85.55555555555554%" stop-color="#d9f9df" stop-opacity="1"></stop></linearGradient></defs><defs><linearGradient id="grad2_5" x1="0%" y1="0%" x2="56.3%" y2="100%"><stop offset="14.444444444444446%" stop-color="#e6fbea" stop-opacity="1"></stop><stop offset="85.55555555555554%" stop-color="#d9f9df" stop-opacity="1"></stop></linearGradient></defs><defs><linearGradient id="grad2_6" x1="0%" y1="0%" x2="56.3%" y2="100%"><stop offset="14.444444444444446%" stop-color="#e6fbea" stop-opacity="1"></stop><stop offset="85.55555555555554%" stop-color="#f2fdf4" stop-opacity="1"></stop></linearGradient></defs><defs><linearGradient id="grad2_7" x1="0%" y1="0%" x2="56.3%" y2="100%"><stop offset="14.444444444444446%" stop-color="#ffffff" stop-opacity="1"></stop><stop offset="85.55555555555554%" stop-color="#f2fdf4" stop-opacity="1"></stop></linearGradient></defs><g transform="translate(1920, 0)"><path d="M0 961C-90.3 902.9 -180.7 844.8 -259.9 799.8C-339.1 754.9 -407.1 723.2 -505.5 695.8C-603.9 668.3 -732.7 645 -786.4 571.3C-840.1 497.6 -818.7 373.4 -830.3 269.8C-841.9 166.1 -886.4 83.1 -931 0L0 0Z" fill="#f9fefa"></path><path d="M0 840.9C-79.1 790 -158.1 739.2 -227.4 699.9C-296.7 660.6 -356.2 632.8 -442.3 608.8C-528.4 584.7 -641.1 564.4 -688.1 499.9C-735.1 435.4 -716.3 326.7 -726.5 236.1C-736.6 145.4 -775.6 72.7 -814.6 0L0 0Z" fill="#ecfcef"></path><path d="M0 720.8C-67.8 677.2 -135.5 633.6 -194.9 599.9C-254.3 566.2 -305.3 542.4 -379.1 521.8C-452.9 501.2 -549.5 483.8 -589.8 428.5C-630 373.2 -614 280.1 -622.7 202.3C-631.4 124.6 -664.8 62.3 -698.2 0L0 0Z" fill="#dffae4"></path><path d="M0 600.6C-56.5 564.3 -112.9 528 -162.4 499.9C-211.9 471.8 -254.4 452 -315.9 434.8C-377.4 417.7 -457.9 403.2 -491.5 357.1C-525 311 -511.7 233.4 -518.9 168.6C-526.2 103.8 -554 51.9 -581.9 0L0 0Z" fill="#d2f8da"></path><path d="M0 480.5C-45.2 451.4 -90.3 422.4 -129.9 399.9C-169.5 377.5 -203.5 361.6 -252.7 347.9C-301.9 334.1 -366.3 322.5 -393.2 285.7C-420 248.8 -409.3 186.7 -415.1 134.9C-420.9 83.1 -443.2 41.5 -465.5 0L0 0Z" fill="#c5f5cf"></path><path d="M0 360.4C-33.9 338.6 -67.8 316.8 -97.5 299.9C-127.2 283.1 -152.7 271.2 -189.6 260.9C-226.5 250.6 -274.8 241.9 -294.9 214.2C-315 186.6 -307 140 -311.4 101.2C-315.7 62.3 -332.4 31.2 -349.1 0L0 0Z" fill="#b7f3c5"></path><path d="M0 240.3C-22.6 225.7 -45.2 211.2 -65 200C-84.8 188.7 -101.8 180.8 -126.4 173.9C-151 167.1 -183.2 161.3 -196.6 142.8C-210 124.4 -204.7 93.4 -207.6 67.4C-210.5 41.5 -221.6 20.8 -232.7 0L0 0Z" fill="#a9f0ba"></path><path d="M0 120.1C-11.3 112.9 -22.6 105.6 -32.5 100C-42.4 94.4 -50.9 90.4 -63.2 87C-75.5 83.5 -91.6 80.6 -98.3 71.4C-105 62.2 -102.3 46.7 -103.8 33.7C-105.2 20.8 -110.8 10.4 -116.4 0L0 0Z" fill="#a2efb5"></path></g><g transform="translate(0, 1080)"><path d="M0 -936C88 -906.5 176.1 -877 280.3 -862.6C384.5 -848.2 504.9 -849 571.3 -786.4C637.7 -723.7 650.1 -597.6 694.9 -504.9C739.8 -412.2 817.1 -353 844.5 -274.4C872 -195.8 849.5 -97.9 827 0L0 0Z" fill="#f9fefa"></path><path d="M0 -819C77 -793.2 154 -767.4 245.2 -754.8C336.4 -742.2 441.8 -742.9 499.9 -688.1C558 -633.2 568.8 -522.9 608.1 -441.8C647.3 -360.7 715 -308.9 739 -240.1C763 -171.3 743.3 -85.7 723.6 0L0 0Z" fill="#ecfcef"></path><path d="M0 -702C66 -679.9 132 -657.7 210.2 -647C288.4 -636.2 378.7 -636.8 428.5 -589.8C478.3 -542.8 487.6 -448.2 521.2 -378.7C554.8 -309.2 612.8 -264.7 633.4 -205.8C654 -146.9 637.1 -73.4 620.3 0L0 0Z" fill="#dffae4"></path><path d="M0 -585C55 -566.6 110 -548.1 175.2 -539.1C240.3 -530.2 315.6 -530.6 357.1 -491.5C398.6 -452.3 406.3 -373.5 434.3 -315.6C462.4 -257.6 510.7 -220.6 527.8 -171.5C545 -122.4 530.9 -61.2 516.9 0L0 0Z" fill="#d2f8da"></path><path d="M0 -468C44 -453.2 88 -438.5 140.1 -431.3C192.3 -424.1 252.5 -424.5 285.7 -393.2C318.9 -361.9 325 -298.8 347.5 -252.5C369.9 -206.1 408.6 -176.5 422.3 -137.2C436 -97.9 424.7 -49 413.5 0L0 0Z" fill="#c5f5cf"></path><path d="M0 -351C33 -339.9 66 -328.9 105.1 -323.5C144.2 -318.1 189.3 -318.4 214.2 -294.9C239.1 -271.4 243.8 -224.1 260.6 -189.3C277.4 -154.6 306.4 -132.4 316.7 -102.9C327 -73.4 318.6 -36.7 310.1 0L0 0Z" fill="#b7f3c5"></path><path d="M0 -234C22 -226.6 44 -219.2 70.1 -215.7C96.1 -212.1 126.2 -212.3 142.8 -196.6C159.4 -180.9 162.5 -149.4 173.7 -126.2C184.9 -103.1 204.3 -88.2 211.1 -68.6C218 -49 212.4 -24.5 206.8 0L0 0Z" fill="#a9f0ba"></path><path d="M0 -117C11 -113.3 22 -109.6 35 -107.8C48.1 -106 63.1 -106.1 71.4 -98.3C79.7 -90.5 81.3 -74.7 86.9 -63.1C92.5 -51.5 102.1 -44.1 105.6 -34.3C109 -24.5 106.2 -12.2 103.4 0L0 0Z" fill="#a2efb5"></path></g></svg>